<svg width="52" height="52" viewBox="0 0 52 52" fill="none" xmlns="http://www.w3.org/2000/svg">
<path fill-rule="evenodd" clip-rule="evenodd" d="M26.677 5.65501C26.4849 5.50118 26.2461 5.41736 25.9999 5.41736C25.7538 5.41736 25.515 5.50118 25.3228 5.65501L9.37075 18.4167H7.58325C7.29593 18.4167 7.02038 18.5308 6.81722 18.734C6.61406 18.9371 6.49992 19.2127 6.49992 19.5V23.8333C6.49992 24.1207 6.61406 24.3962 6.81722 24.5994C7.02038 24.8025 7.29593 24.9167 7.58325 24.9167H8.66659V35.75H7.58325C7.29593 35.75 7.02038 35.8642 6.81722 36.0673C6.61406 36.2705 6.49992 36.546 6.49992 36.8333V40.0833H5.41659C5.12927 40.0833 4.85372 40.1975 4.65055 40.4007C4.44739 40.6038 4.33325 40.8794 4.33325 41.1667V45.5C4.33325 45.7873 4.44739 46.0629 4.65055 46.266C4.85372 46.4692 5.12927 46.5833 5.41659 46.5833H46.5833C46.8706 46.5833 47.1461 46.4692 47.3493 46.266C47.5525 46.0629 47.6666 45.7873 47.6666 45.5V41.1667C47.6666 40.8794 47.5525 40.6038 47.3493 40.4007C47.1461 40.1975 46.8706 40.0833 46.5833 40.0833H45.4999V36.8333C45.4999 36.546 45.3858 36.2705 45.1826 36.0673C44.9795 35.8642 44.7039 35.75 44.4166 35.75H43.3333V24.9167H44.4166C44.7039 24.9167 44.9795 24.8025 45.1826 24.5994C45.3858 24.3962 45.4999 24.1207 45.4999 23.8333V19.5C45.4999 19.2127 45.3858 18.9371 45.1826 18.734C44.9795 18.5308 44.7039 18.4167 44.4166 18.4167H42.6291L26.677 5.65501ZM39.1613 18.4167L25.9999 7.88668L12.8374 18.4167H39.1613ZM8.66659 20.5833V22.75H43.3333V20.5833H8.66659ZM41.1666 24.9167H38.9999V35.75H41.1666V24.9167ZM36.8333 35.75V24.9167H15.1666V35.75H16.2499C16.5372 35.75 16.8128 35.8642 17.016 36.0673C17.2191 36.2705 17.3333 36.546 17.3333 36.8333V40.0833H21.6666V31.4167C21.6666 30.2674 22.1231 29.1652 22.9358 28.3526C23.7484 27.5399 24.8506 27.0833 25.9999 27.0833C27.1492 27.0833 28.2514 27.5399 29.064 28.3526C29.8767 29.1652 30.3333 30.2674 30.3333 31.4167V40.0833H34.6666V36.8333C34.6666 36.546 34.7807 36.2705 34.9839 36.0673C35.1871 35.8642 35.4626 35.75 35.7499 35.75H36.8333ZM23.8333 31.4167V40.0833H28.1666V31.4167C28.1666 30.842 27.9383 30.2909 27.532 29.8846C27.1257 29.4783 26.5746 29.25 25.9999 29.25C25.4253 29.25 24.8742 29.4783 24.4679 29.8846C24.0615 30.2909 23.8333 30.842 23.8333 31.4167ZM45.4999 42.25V44.4167H6.49992V42.25H45.4999ZM36.8333 37.9167V40.0833H43.3333V37.9167H36.8333ZM10.8333 35.75V24.9167H12.9999V35.75H10.8333ZM8.66659 37.9167H15.1666V40.0833H8.66659V37.9167Z" fill="#004F9F"/>
</svg>
