<svg width="52" height="52" viewBox="0 0 52 52" fill="none" xmlns="http://www.w3.org/2000/svg">
<path d="M6.5 8.66666H26L28.1667 23.8333M8.66667 23.8333V8.66666M17.3333 21.6667V8.66666M39 10.8333C37.7 10.8333 36.8333 11.7 36.8333 13V25.1333" stroke="#004F9F" stroke-width="3" stroke-linecap="round" stroke-linejoin="round"/>
<path d="M21.6665 23.8333L45.4998 25.7833C46.7998 25.7833 47.4498 26.8666 47.2332 28.1666L45.4998 39H43.3332" stroke="#004F9F" stroke-width="3" stroke-linecap="round" stroke-linejoin="round"/>
<path d="M15.1666 33.5833C15.7649 33.5833 16.2499 33.0983 16.2499 32.5C16.2499 31.9017 15.7649 31.4167 15.1666 31.4167C14.5683 31.4167 14.0833 31.9017 14.0833 32.5C14.0833 33.0983 14.5683 33.5833 15.1666 33.5833Z" stroke="#004F9F" stroke-width="3" stroke-linecap="round" stroke-linejoin="round"/>
<path d="M15.1666 43.3333C21.1497 43.3333 25.9999 38.4831 25.9999 32.5C25.9999 26.5169 21.1497 21.6667 15.1666 21.6667C9.1835 21.6667 4.33325 26.5169 4.33325 32.5C4.33325 38.4831 9.1835 43.3333 15.1666 43.3333Z" stroke="#004F9F" stroke-width="3" stroke-linecap="round" stroke-linejoin="round"/>
<path d="M34.6666 39H23.8333" stroke="#004F9F" stroke-width="3" stroke-linecap="round" stroke-linejoin="round"/>
<path d="M38.9998 43.3333C41.3931 43.3333 43.3332 41.3932 43.3332 39C43.3332 36.6068 41.3931 34.6667 38.9998 34.6667C36.6066 34.6667 34.6665 36.6068 34.6665 39C34.6665 41.3932 36.6066 43.3333 38.9998 43.3333Z" stroke="#004F9F" stroke-width="3" stroke-linecap="round" stroke-linejoin="round"/>
</svg>
