<svg width="52" height="52" viewBox="0 0 52 52" fill="none" xmlns="http://www.w3.org/2000/svg">
<g clip-path="url(#clip0_129_48)">
<path fill-rule="evenodd" clip-rule="evenodd" d="M26.0001 26C30.0582 26 33.7351 27.3433 36.4326 29.2218C38.9957 31.0093 41.1667 33.6657 41.1667 36.5235C41.1667 38.0922 40.4972 39.3922 39.4421 40.3585C38.4497 41.2707 37.1541 41.8622 35.8194 42.2652C33.1522 43.0733 29.6401 43.3333 26.0001 43.3333C22.3601 43.3333 18.8479 43.0733 16.1807 42.2652C14.8461 41.8622 13.5504 41.2707 12.5559 40.3585C11.5051 39.3943 10.8334 38.0943 10.8334 36.5257C10.8334 33.6678 13.0044 31.0115 15.5676 29.224C18.2651 27.3433 21.9419 26 26.0001 26ZM26.0001 30.3333C22.8801 30.3333 20.0569 31.3733 18.0484 32.7752C15.9056 34.2702 15.1667 35.7912 15.1667 36.5235C15.1667 37.1822 15.9294 37.5938 16.6227 37.8538L17.0669 38.0055L17.4352 38.1182C19.4719 38.7335 22.4619 39 26.0001 39C29.2674 39 32.0646 38.7725 34.0774 38.2547L34.7361 38.0662L35.1477 37.9362C35.8909 37.6827 36.8334 37.2558 36.8334 36.5235C36.8334 35.7912 36.0946 34.2702 33.9517 32.7752C31.9454 31.3755 29.1201 30.3333 26.0001 30.3333ZM41.1667 28.1667C43.4287 28.1667 45.4827 28.9142 47.0016 29.9715C48.3882 30.94 49.8334 32.5498 49.8334 34.5128C49.8334 37.4053 47.0232 38.441 44.4969 38.8028L43.8469 38.883L43.2207 38.9372C43.1211 38.9437 43.0215 38.9494 42.9217 38.9545C43.1861 38.207 43.3334 37.3945 43.3334 36.5235C43.3326 35.8752 43.2547 35.2294 43.1016 34.5995C43.9379 34.5345 44.6247 34.4262 45.1361 34.2723C45.3614 34.203 45.1577 33.9907 44.9194 33.8065L44.6876 33.6375L44.5229 33.527C43.8726 33.083 43.1394 32.7749 42.3671 32.6213C41.5437 30.9747 40.2784 29.549 38.9307 28.4115C39.665 28.2489 40.4147 28.1669 41.1667 28.1667ZM10.8334 28.1667C11.6069 28.1667 12.3566 28.2533 13.0694 28.4115C11.7217 29.549 10.4564 30.9747 9.63308 32.6213C8.86086 32.7751 8.12761 33.0832 7.47725 33.527L7.19991 33.7177C6.92475 33.917 6.60191 34.1943 6.86408 34.2723C7.37541 34.4262 8.06225 34.5367 8.90075 34.5995C8.74585 35.2291 8.66728 35.8751 8.66675 36.5235C8.66675 37.3945 8.81408 38.207 9.07841 38.9545L8.47175 38.9112L7.83041 38.8462C5.22608 38.5277 2.16675 37.531 2.16675 34.5128C2.16675 32.552 3.60975 30.94 4.99858 29.9715C6.71645 28.7941 8.75077 28.1648 10.8334 28.1667ZM40.0834 15.1667C41.52 15.1667 42.8978 15.7373 43.9136 16.7532C44.9294 17.769 45.5001 19.1467 45.5001 20.5833C45.5001 22.0199 44.9294 23.3977 43.9136 24.4135C42.8978 25.4293 41.52 26 40.0834 26C38.6468 26 37.2691 25.4293 36.2533 24.4135C35.2374 23.3977 34.6667 22.0199 34.6667 20.5833C34.6667 19.1467 35.2374 17.769 36.2533 16.7532C37.2691 15.7373 38.6468 15.1667 40.0834 15.1667ZM11.9167 15.1667C13.3533 15.1667 14.7311 15.7373 15.7469 16.7532C16.7627 17.769 17.3334 19.1467 17.3334 20.5833C17.3334 22.0199 16.7627 23.3977 15.7469 24.4135C14.7311 25.4293 13.3533 26 11.9167 26C10.4802 26 9.10241 25.4293 8.08659 24.4135C7.07076 23.3977 6.50008 22.0199 6.50008 20.5833C6.50008 19.1467 7.07076 17.769 8.08659 16.7532C9.10241 15.7373 10.4802 15.1667 11.9167 15.1667ZM26.0001 6.5C28.2986 6.5 30.503 7.41309 32.1283 9.03841C33.7537 10.6637 34.6667 12.8681 34.6667 15.1667C34.6667 17.4652 33.7537 19.6696 32.1283 21.2949C30.503 22.9202 28.2986 23.8333 26.0001 23.8333C23.7015 23.8333 21.4971 22.9202 19.8718 21.2949C18.2465 19.6696 17.3334 17.4652 17.3334 15.1667C17.3334 12.8681 18.2465 10.6637 19.8718 9.03841C21.4971 7.41309 23.7015 6.5 26.0001 6.5ZM40.0834 19.5C39.7961 19.5 39.5205 19.6141 39.3174 19.8173C39.1142 20.0205 39.0001 20.296 39.0001 20.5833C39.0001 20.8707 39.1142 21.1462 39.3174 21.3494C39.5205 21.5525 39.7961 21.6667 40.0834 21.6667C40.3707 21.6667 40.6463 21.5525 40.8494 21.3494C41.0526 21.1462 41.1667 20.8707 41.1667 20.5833C41.1667 20.296 41.0526 20.0205 40.8494 19.8173C40.6463 19.6141 40.3707 19.5 40.0834 19.5ZM11.9167 19.5C11.6294 19.5 11.3539 19.6141 11.1507 19.8173C10.9476 20.0205 10.8334 20.296 10.8334 20.5833C10.8334 20.8707 10.9476 21.1462 11.1507 21.3494C11.3539 21.5525 11.6294 21.6667 11.9167 21.6667C12.2041 21.6667 12.4796 21.5525 12.6828 21.3494C12.8859 21.1462 13.0001 20.8707 13.0001 20.5833C13.0001 20.296 12.8859 20.0205 12.6828 19.8173C12.4796 19.6141 12.2041 19.5 11.9167 19.5ZM26.0001 10.8333C24.8508 10.8333 23.7486 11.2899 22.936 12.1025C22.1233 12.9152 21.6667 14.0174 21.6667 15.1667C21.6667 16.3159 22.1233 17.4181 22.936 18.2308C23.7486 19.0435 24.8508 19.5 26.0001 19.5C27.1494 19.5 28.2516 19.0435 29.0642 18.2308C29.8769 17.4181 30.3334 16.3159 30.3334 15.1667C30.3334 14.0174 29.8769 12.9152 29.0642 12.1025C28.2516 11.2899 27.1494 10.8333 26.0001 10.8333Z" fill="#004F9F"/>
</g>
<defs>
<clipPath id="clip0_129_48">
<rect width="52" height="52" fill="white"/>
</clipPath>
</defs>
</svg>
