<svg width="52" height="52" viewBox="0 0 52 52" fill="none" xmlns="http://www.w3.org/2000/svg">
<g clip-path="url(#clip0_129_242)">
<path fill-rule="evenodd" clip-rule="evenodd" d="M20.9192 7.36669C22.6873 7.94083 24.3902 8.69898 26 9.62869C27.6098 8.69898 29.3127 7.94083 31.0808 7.36669C35.5095 5.96702 39.9208 6.21619 42.8523 9.14769C45.7838 12.0792 46.033 16.4927 44.6333 20.9192C44.0591 22.6873 43.3009 24.3902 42.3713 26C43.3593 27.7399 44.1155 29.445 44.6333 31.0809C46.033 35.5074 45.7838 39.9209 42.8523 42.8524C39.923 45.7839 35.5073 46.033 31.0808 44.6334C29.3127 44.0592 27.6098 43.3011 26 42.3714C24.3902 43.3011 22.6873 44.0592 20.9192 44.6334C16.4927 46.0309 12.0792 45.7839 9.14766 42.8524C6.21616 39.9209 5.96916 35.5074 7.36666 31.0809C7.88449 29.4429 8.64066 27.7399 9.62866 26C8.69895 24.3902 7.94079 22.6873 7.36666 20.9192C5.96916 16.4905 6.21832 12.0792 9.14766 9.14769C12.0792 6.21619 16.4927 5.96702 20.9192 7.36669ZM39.6283 30.1362C38.35 31.8219 36.868 33.5162 35.1932 35.1932C33.6103 36.7842 31.9207 38.2653 30.1362 39.6262C30.914 39.9815 31.6658 40.274 32.3873 40.5015C36.0663 41.6629 38.4887 41.0865 39.7887 39.7865C41.0887 38.4887 41.665 36.0642 40.5037 32.3874C40.2583 31.619 39.9659 30.8665 39.6283 30.134V30.1362ZM12.3717 30.1362C12.035 30.8681 11.7434 31.6199 11.4985 32.3874C10.3372 36.0664 10.9135 38.4887 12.2135 39.7887C13.5113 41.0887 15.9358 41.6629 19.6127 40.5015C20.3363 40.274 21.086 39.9815 21.866 39.6262C20.0815 38.2653 18.3919 36.7842 16.809 35.1932C15.2173 33.6104 13.7333 31.9208 12.3717 30.1362ZM26 14.7334C23.8016 16.2514 21.7502 17.9721 19.8727 19.8727C17.972 21.7502 16.2514 23.8016 14.7333 26C16.2501 28.1982 17.9692 30.2496 19.8683 32.1274C21.9548 34.2139 24.0197 35.919 26 37.2667C28.1984 35.7486 30.2498 34.028 32.1273 32.1274C34.0272 30.2497 35.7471 28.1983 37.2645 26C35.7478 23.8018 34.0287 21.7504 32.1295 19.8727C30.2512 17.972 28.1991 16.2514 26 14.7334ZM26 22.75C26.8619 22.75 27.6886 23.0924 28.2981 23.7019C28.9076 24.3114 29.25 25.1381 29.25 26C29.25 26.862 28.9076 27.6886 28.2981 28.2981C27.6886 28.9076 26.8619 29.25 26 29.25C25.138 29.25 24.3114 28.9076 23.7019 28.2981C23.0924 27.6886 22.75 26.862 22.75 26C22.75 25.1381 23.0924 24.3114 23.7019 23.7019C24.3114 23.0924 25.138 22.75 26 22.75ZM12.2113 12.2114C10.9113 13.5114 10.3372 15.9337 11.4985 19.6127C11.726 20.3342 12.0185 21.086 12.3738 21.866C13.6522 20.176 15.132 18.4839 16.809 16.8069C18.3912 15.216 20.08 13.7349 21.8638 12.3739C21.132 12.0364 20.3802 11.7441 19.6127 11.4985C15.9358 10.3372 13.5113 10.9135 12.2113 12.2114ZM32.3873 11.4985C31.6658 11.726 30.914 12.0185 30.1362 12.3739C31.8218 13.6522 33.5162 15.132 35.1932 16.8069C36.7849 18.3897 38.2667 20.0793 39.6283 21.8639C39.9837 21.086 40.274 20.3342 40.5015 19.6127C41.665 15.9337 41.0887 13.5114 39.7887 12.2114C38.4887 10.9114 36.0663 10.3372 32.3873 11.4985Z" fill="#004F9F"/>
</g>
<defs>
<clipPath id="clip0_129_242">
<rect width="52" height="52" fill="white"/>
</clipPath>
</defs>
</svg>
