<svg width="52" height="52" viewBox="0 0 52 52" fill="none" xmlns="http://www.w3.org/2000/svg">
<g clip-path="url(#clip0_129_72)">
<path d="M34.3503 13.3163C35.0257 13.9947 35.5339 14.8211 35.8344 15.73L36.8051 18.7135C36.8852 18.9445 37.0353 19.1447 37.2345 19.2865C37.4337 19.4282 37.6721 19.5044 37.9166 19.5044C38.1611 19.5044 38.3995 19.4282 38.5987 19.2865C38.7979 19.1447 38.948 18.9445 39.0281 18.7135L39.9988 15.73C40.3008 14.8231 40.8102 13.9992 41.4865 13.3237C42.1628 12.6482 42.9872 12.1397 43.8944 11.8387L46.8801 10.868C47.1093 10.7864 47.3077 10.6359 47.4479 10.4371C47.5882 10.2382 47.6635 10.0009 47.6635 9.75758C47.6635 9.51427 47.5882 9.27692 47.4479 9.0781C47.3077 8.87929 47.1093 8.72876 46.8801 8.64716L46.8194 8.632L43.8338 7.66133C42.9268 7.35981 42.1026 6.85116 41.4264 6.17572C40.7502 5.50028 40.2406 4.6766 39.9381 3.77L38.9718 0.786496C38.8911 0.555776 38.7406 0.355849 38.5413 0.214393C38.342 0.0729363 38.1036 -0.00305176 37.8592 -0.00305176C37.6147 -0.00305176 37.3764 0.0729363 37.177 0.214393C36.9777 0.355849 36.8273 0.555776 36.7466 0.786496L35.7759 3.77L35.7521 3.84366C35.4492 4.72806 34.9485 5.53167 34.288 6.19325C33.6276 6.85484 32.8248 7.35695 31.9409 7.66133L28.9553 8.632C28.726 8.71359 28.5277 8.86412 28.3874 9.06294C28.2471 9.26175 28.1718 9.4991 28.1718 9.74241C28.1718 9.98572 28.2471 10.2231 28.3874 10.4219C28.5277 10.6207 28.726 10.7712 28.9553 10.8528L31.9409 11.8235C32.8509 12.1268 33.6721 12.6382 34.3503 13.3163ZM49.8723 21.5908L51.5319 22.1282L51.5644 22.1368C51.66 22.1706 51.7464 22.226 51.817 22.2987C51.8876 22.3714 51.9404 22.4595 51.9712 22.556C52.0021 22.6526 52.0102 22.755 51.9948 22.8551C51.9795 22.9553 51.9412 23.0506 51.8829 23.1335C51.8041 23.2441 51.6927 23.3274 51.5644 23.3718L49.9069 23.9092C49.4024 24.0767 48.9438 24.3595 48.5677 24.7352C48.1916 25.111 47.9083 25.5693 47.7403 26.0737L47.2029 27.729C47.1581 27.857 47.0745 27.9679 46.9639 28.0463C46.8533 28.1248 46.721 28.1669 46.5854 28.1669C46.4498 28.1669 46.3175 28.1248 46.2069 28.0463C46.0963 27.9679 46.0128 27.857 45.9679 27.729L45.4284 26.0737C45.262 25.568 44.9795 25.1084 44.6037 24.7314C44.2278 24.3545 43.769 24.0706 43.2639 23.9027L41.6064 23.3632C41.5109 23.3294 41.4244 23.274 41.3538 23.2013C41.2832 23.1286 41.2305 23.0405 41.1996 22.9439C41.1688 22.8474 41.1607 22.745 41.176 22.6449C41.1913 22.5447 41.2296 22.4494 41.2879 22.3665C41.3668 22.2559 41.4781 22.1726 41.6064 22.1282L43.2639 21.5908C43.7622 21.4191 44.214 21.1343 44.5839 20.7588C44.9538 20.3832 45.2317 19.9272 45.3959 19.4263L45.9354 17.771C45.9803 17.643 46.0638 17.5321 46.1744 17.4537C46.285 17.3752 46.4173 17.3331 46.5529 17.3331C46.6885 17.3331 46.8208 17.3752 46.9314 17.4537C47.042 17.5321 47.1256 17.643 47.1704 17.771L47.7099 19.4263C47.8772 19.9307 48.1601 20.3891 48.5359 20.7649C48.9116 21.1407 49.3678 21.4235 49.8723 21.5908ZM21.9309 8.67316H26.1754C26.3382 8.19252 26.6081 7.75514 26.9647 7.39406C27.3212 7.03298 27.7552 6.75764 28.2338 6.58883L31.2476 5.60733L31.3559 5.5705C30.9684 5.47298 30.5704 5.42349 30.1708 5.42316H21.9309C21.0976 5.42338 20.2783 5.6372 19.5511 6.0442C18.824 6.45121 18.2133 7.0378 17.7774 7.748L15.8816 10.8333H11.3749C9.50735 10.8333 7.71628 11.5752 6.39571 12.8958C5.07514 14.2164 4.33325 16.0074 4.33325 17.875V38.4583C4.33325 40.3259 5.07514 42.117 6.39571 43.4375C7.71628 44.7581 9.50735 45.5 11.3749 45.5H40.6249C41.5496 45.5 42.4653 45.3179 43.3196 44.964C44.174 44.6101 44.9503 44.0914 45.6041 43.4375C46.258 42.7837 46.7767 42.0074 47.1306 41.1531C47.4845 40.2987 47.6666 39.3831 47.6666 38.4583V30.1123C46.7869 30.4677 45.7383 30.368 44.9539 29.8155C44.7541 29.6741 44.5734 29.5073 44.4166 29.3193V38.4583C44.4166 39.4639 44.0171 40.4284 43.306 41.1394C42.595 41.8505 41.6305 42.25 40.6249 42.25H11.3749C10.3693 42.25 9.40488 41.8505 8.69381 41.1394C7.98273 40.4284 7.58325 39.4639 7.58325 38.4583V17.875C7.58325 15.782 9.28192 14.0833 11.3749 14.0833H16.7916C17.0698 14.0835 17.3434 14.0123 17.5862 13.8765C17.829 13.7407 18.0328 13.5448 18.1783 13.3077L20.5464 9.44883L20.6873 9.25383C20.8396 9.07217 21.0299 8.92606 21.2448 8.82575C21.4596 8.72543 21.6938 8.67335 21.9309 8.67316ZM35.7499 27.0833C35.7499 24.4975 34.7227 22.0175 32.8942 20.189C31.0657 18.3606 28.5858 17.3333 25.9999 17.3333C23.4141 17.3333 20.9341 18.3606 19.1056 20.189C17.2771 22.0175 16.2499 24.4975 16.2499 27.0833C16.2499 29.6692 17.2771 32.1491 19.1056 33.9776C20.9341 35.8061 23.4141 36.8333 25.9999 36.8333C28.5858 36.8333 31.0657 35.8061 32.8942 33.9776C34.7227 32.1491 35.7499 29.6692 35.7499 27.0833ZM19.4999 27.0833C19.4999 25.3594 20.1847 23.7061 21.4037 22.4871C22.6227 21.2681 24.276 20.5833 25.9999 20.5833C27.7238 20.5833 29.3771 21.2681 30.5961 22.4871C31.8151 23.7061 32.4999 25.3594 32.4999 27.0833C32.4999 28.8072 31.8151 30.4605 30.5961 31.6795C29.3771 32.8985 27.7238 33.5833 25.9999 33.5833C24.276 33.5833 22.6227 32.8985 21.4037 31.6795C20.1847 30.4605 19.4999 28.8072 19.4999 27.0833Z" fill="#004F9F"/>
</g>
<defs>
<clipPath id="clip0_129_72">
<rect width="52" height="52" fill="white"/>
</clipPath>
</defs>
</svg>
