<svg width="24" height="24" viewBox="0 0 24 24" fill="#0057AF" xmlns="http://www.w3.org/2000/svg">
<path d="M5.50519 14.454H1.4942C0.670248 14.454 0 13.6775 0 12.7234V1.72979C0 0.776077 0.670248 0 1.4942 0H5.50519C6.32914 0 6.99939 0.776077 6.99939 1.72979V12.7234C6.99939 13.6775 6.32914 14.454 5.50519 14.454ZM1.4942 1.25986C1.41399 1.25986 1.25986 1.44296 1.25986 1.72979V12.7234C1.25986 13.0106 1.41357 13.1941 1.4942 13.1941H5.50519C5.5854 13.1941 5.73952 13.0102 5.73952 12.7234V1.72979C5.73952 1.44254 5.58582 1.25986 5.50519 1.25986H1.4942V1.25986Z"/>
<path d="M13.3252 23.2886C12.0611 23.2886 11.0331 22.261 11.0331 20.9969C11.0331 20.9117 11.0381 20.8264 11.0478 20.7403C11.0326 20.6647 11.031 20.5879 11.0473 20.5131C11.4853 18.5053 10.5728 16.225 9.98989 15.0449C9.93949 14.9433 9.89036 14.8441 9.84332 14.7547C9.75513 14.6526 9.63587 14.5838 9.50148 14.5586H9.32888C9.3041 14.5586 9.26505 14.5561 9.23481 14.5523C8.27815 14.4981 7.53903 13.7212 7.53903 12.7683V1.78985C7.53903 0.802954 8.34199 0 9.32888 0H21.707C21.7616 0 21.8141 0.00671927 21.8637 0.0197379C23.0232 0.141945 23.9135 1.11792 23.9135 2.29253C23.9135 2.92415 23.6565 3.49738 23.2386 3.9123C23.7056 4.33225 24 4.94077 24 5.6169C24 6.27077 23.7249 6.86122 23.2844 7.2795C23.7249 7.69693 24 8.28823 24 8.9421C24 9.59597 23.7249 10.1864 23.2844 10.6039C23.7249 11.0221 24 11.6126 24 12.2665C24 13.5305 22.972 14.559 21.7079 14.559L16.4135 14.5582C17.8939 19.1613 15.2645 22.248 15.1448 22.3849C15.1423 22.3874 15.1398 22.3899 15.1381 22.3937C14.7043 22.9547 14.0315 23.2886 13.3252 23.2886ZM12.3185 20.582C12.3295 20.6492 12.3295 20.7172 12.3156 20.7844C12.3005 20.855 12.2925 20.9264 12.2925 20.9969C12.2925 21.5659 12.7561 22.0287 13.3252 22.0287C13.6565 22.0287 13.9601 21.8721 14.1584 21.5991C14.1781 21.5718 14.2004 21.5458 14.2239 21.5218C14.5157 21.1628 16.6697 18.3109 14.9269 14.1726C14.845 13.9782 14.8656 13.756 14.9827 13.5805C15.0991 13.4041 15.296 13.2983 15.5077 13.2983H21.707C21.9825 13.2983 22.2417 13.1916 22.4369 12.9963C22.6314 12.8011 22.7389 12.542 22.7389 12.2665C22.7389 11.6974 22.2757 11.2338 21.707 11.2338C21.3593 11.2338 21.0771 10.9516 21.0771 10.6039C21.0771 10.2561 21.3593 9.97393 21.707 9.97393C22.2757 9.97393 22.7389 9.51114 22.7389 8.9421C22.7389 8.37306 22.2757 7.90943 21.707 7.90943C21.3593 7.90943 21.0771 7.62722 21.0771 7.2795C21.0771 6.93178 21.3593 6.64957 21.707 6.64957C22.2757 6.64957 22.7389 6.18594 22.7389 5.6169C22.7389 5.04786 22.2757 4.58507 21.707 4.58507C21.3593 4.58507 21.0771 4.30286 21.0771 3.95514C21.0771 3.61959 21.3396 3.33486 21.6743 3.3168C22.2232 3.28825 22.6532 2.83764 22.6532 2.29253C22.6532 1.74617 22.2232 1.29682 21.6743 1.26826C21.6487 1.26658 21.6247 1.26406 21.6004 1.25986H9.32888C9.03701 1.25986 8.7989 1.49756 8.7989 1.78985V12.7687C8.7989 13.053 9.02273 13.2844 9.30872 13.2949C9.32132 13.2958 9.34106 13.2975 9.35996 13.2991H9.54852C9.57497 13.2991 9.60185 13.3008 9.62789 13.3042C10.1323 13.3688 10.577 13.628 10.8798 14.0349C10.8987 14.0613 10.9159 14.0882 10.931 14.1168C10.9911 14.2302 11.0545 14.3549 11.1191 14.4876C11.8973 16.0616 12.7225 18.3781 12.3185 20.582Z"/>
</svg>
