<svg width="52" height="52" viewBox="0 0 52 52" fill="none" xmlns="http://www.w3.org/2000/svg">
<g clip-path="url(#clip0_129_273)">
<path d="M27.3911 8.25501C28.2621 7.71334 29.3281 7.61801 30.2684 7.97551L30.5761 8.11201L46.7047 16.2608C47.3863 16.6076 47.9249 17.1822 48.2269 17.8848C48.5289 18.5873 48.5752 19.3735 48.3579 20.1067C47.5129 22.9905 47.6061 24.2017 48.1586 25.5688C48.6786 26.858 48.3752 28.4765 47.1619 29.4277L46.8867 29.6227L24.6047 43.7255C23.6709 44.317 22.4814 44.408 21.4479 43.9032L13.1279 39.7973L9.65255 38.0532L7.18255 36.7922L5.67455 36.0013L4.89455 35.5767L4.32905 35.2517C2.11905 33.9192 1.43005 31.2108 1.44305 29.1417C1.45172 27.0378 2.17538 24.4097 4.18388 22.9667L4.83388 22.5182L6.69288 21.3027L11.1237 18.473L27.3911 8.25501ZM43.4049 23.1573L24.6134 35.0523C24.4617 35.1498 24.3014 35.2322 24.1389 35.3015C23.9006 36.1855 23.8182 36.8203 23.8269 37.4097C23.8312 37.7628 23.8702 38.1203 23.9461 38.5298L24.0371 38.9567L43.8577 26.4117C43.5745 25.5397 43.4212 24.6308 43.4027 23.7142L43.4049 23.1573ZM6.06672 27.469C5.87111 28.0108 5.77282 28.583 5.77638 29.159C5.76988 30.615 6.28988 31.3755 6.56722 31.5423L7.23455 31.9215L8.59088 32.643L12.4259 34.5995L19.5217 38.1333C19.5044 37.9149 19.4942 37.696 19.4914 37.4768C19.4857 36.4529 19.6168 35.4327 19.8814 34.4435L6.06672 27.4668V27.469ZM42.1569 18.8197L29.1677 12.2547L14.5211 21.45L9.75872 24.4812L22.8151 31.0678L42.1569 18.8197ZM27.3304 15.8947C27.5767 15.424 27.9873 15.0603 28.4843 14.8726C28.9812 14.6848 29.5297 14.6862 30.0257 14.8763L30.2554 14.9803L34.8054 17.3637C35.2972 17.619 35.6725 18.0531 35.8541 18.5766C36.0357 19.1002 36.0098 19.6735 35.7817 20.1785C35.5536 20.6835 35.1407 21.082 34.6278 21.2919C34.1149 21.5018 33.5411 21.5072 33.0244 21.307L32.7947 21.203L28.2447 18.8197C27.9926 18.6877 27.7689 18.5073 27.5865 18.2889C27.4041 18.0704 27.2665 17.8182 27.1816 17.5466C27.0967 17.275 27.0662 16.9893 27.0917 16.7058C27.1172 16.4224 27.1983 16.1468 27.3304 15.8947Z" fill="#004F9F"/>
</g>
<defs>
<clipPath id="clip0_129_273">
<rect width="52" height="52" fill="white"/>
</clipPath>
</defs>
</svg>
