<svg width="52" height="52" viewBox="0 0 52 52" fill="none" xmlns="http://www.w3.org/2000/svg">
<path d="M50 9.74998C51.1046 9.74998 52 10.6454 52 11.75V40.25C52 41.3546 51.1046 42.25 50 42.25H2C0.895432 42.25 0 41.3546 0 40.25V11.75C0 10.6454 0.895431 9.74998 2 9.74998H16.25V6.49998C16.25 6.04295 16.3346 5.61977 16.5039 5.23045C16.6732 4.84113 16.9017 4.50258 17.1895 4.21482C17.4772 3.92706 17.8242 3.69008 18.2305 3.50389C18.6367 3.31769 19.0599 3.23305 19.5 3.24998H32.5C32.957 3.24998 33.3802 3.33462 33.7695 3.50389C34.1589 3.67316 34.4974 3.90167 34.7852 4.18943C35.0729 4.47719 35.3099 4.8242 35.4961 5.23045C35.6823 5.6367 35.7669 6.05988 35.75 6.49998V9.74998H50ZM19.5 9.74998H32.5V6.49998H19.5V9.74998ZM4.25 13C3.69772 13 3.25 13.4477 3.25 14V17.6972L19.5 25.7969V23.25C19.5 22.9738 19.7239 22.75 20 22.75H32C32.2761 22.75 32.5 22.9738 32.5 23.25V25.7969L48.75 17.6972V14C48.75 13.4477 48.3023 13 47.75 13H4.25ZM23.05 26C22.8843 26 22.75 26.1343 22.75 26.3V28.95C22.75 29.1157 22.8843 29.25 23.05 29.25H28.95C29.1157 29.25 29.25 29.1157 29.25 28.95V26.3C29.25 26.1343 29.1157 26 28.95 26H23.05ZM47.75 39C48.3023 39 48.75 38.5523 48.75 38V21.3027L32.5 29.4531V32C32.5 32.2761 32.2761 32.5 32 32.5H20C19.7239 32.5 19.5 32.2761 19.5 32V29.4531L3.25 21.3027V38C3.25 38.5523 3.69772 39 4.25 39H47.75Z" fill="#004F9F"/>
</svg>
