<svg width="264" height="166" viewBox="0 0 264 166" fill="none" xmlns="http://www.w3.org/2000/svg">
<g clip-path="url(#clip0_101_2324)">
<rect width="264" height="166" rx="14.5121" fill="white"/>
<rect width="359.175" height="214.054" fill="#A0A0A0" fill-opacity="0.1"/>
<path d="M109.077 84.124C111.861 79.3213 118.821 79.3213 121.605 84.124L127.869 94.9302C130.653 99.7329 127.173 105.736 121.605 105.736H109.077C103.509 105.736 100.029 99.7329 102.813 94.9302L109.077 84.124Z" fill="#A9AEB1"/>
<path d="M136.981 73.3177C139.77 68.515 146.744 68.515 149.534 73.3178L162.087 94.9301C164.876 99.7328 161.389 105.736 155.81 105.736H130.704C125.125 105.736 121.638 99.7328 124.428 94.93L136.981 73.3177Z" fill="#595959"/>
<circle cx="110.839" cy="66.1138" r="5.40307" fill="#A9AEB1"/>
</g>
<rect x="0.907009" y="0.907009" width="262.186" height="164.186" rx="13.6051" stroke="#D4D7D8" stroke-width="1.81402"/>
<defs>
<clipPath id="clip0_101_2324">
<rect width="264" height="166" rx="14.5121" fill="white"/>
</clipPath>
</defs>
</svg>
