<svg width="52" height="52" viewBox="0 0 52 52" fill="none" xmlns="http://www.w3.org/2000/svg">
<path d="M32.1639 44.1844H46.5413V7.35105C46.5413 6.77642 46.313 6.22532 45.9067 5.81899C45.5003 5.41266 44.9492 5.18439 44.3746 5.18439H22.7079C22.1333 5.18439 21.5822 5.41266 21.1759 5.81899C20.7695 6.22532 20.5413 6.77642 20.5413 7.35105V18.5116M29.2079 13.8511V13.8727M37.8746 13.8511V13.8727M37.8746 22.5177V22.5394M37.8746 31.1844V31.2061" stroke="#004F9F" stroke-width="2" stroke-linecap="round" stroke-linejoin="round"/>
<path d="M31.4897 31.4227V46.126C31.4897 46.5068 31.1809 46.8156 30.8001 46.8156H18.0418M7.58226 31.5624V46.126C7.58226 46.5068 7.89102 46.8156 8.27189 46.8156H11.3178M11.3178 46.8156V36.7009C11.3178 36.5105 11.4722 36.3561 11.6626 36.3561H17.6969C17.8874 36.3561 18.0418 36.5105 18.0418 36.7009V46.8156M11.3178 46.8156H18.0418M5.45874 24.8538L10.6727 19.6398C10.8021 19.5105 10.9775 19.4378 11.1604 19.4378H16.7401M5.45874 24.8538V28.0183C5.45874 28.0183 6.22317 32.4003 10.2549 32.4003C14.737 32.4003 15.1626 28.0183 15.1626 28.0183M5.45874 24.8538H15.1626M33.5415 24.8538L28.6912 19.6569C28.5607 19.5171 28.3782 19.4378 28.187 19.4378H22.6134M33.5415 24.8538H24.3521M33.5415 24.8538V28.0183C33.5415 28.0183 32.5402 32.5505 28.4867 32.4003C24.8305 32.2648 24.3521 28.0183 24.3521 28.0183M15.1626 24.8538L16.7401 19.4378M15.1626 24.8538H24.3521M15.1626 24.8538V28.0183M16.7401 19.4378H22.6134M22.6134 19.4378L24.3521 24.8538M24.3521 24.8538V28.0183M15.1626 28.0183C15.1626 28.0183 15.7135 32.4003 19.4194 32.4003C23.6261 32.4003 24.3521 28.0183 24.3521 28.0183M27.0586 41.1017H22.4927C22.3022 41.1017 22.1479 40.9473 22.1479 40.7569V36.7009C22.1479 36.5105 22.3022 36.3561 22.4927 36.3561H27.0586C27.249 36.3561 27.4034 36.5105 27.4034 36.7009V40.7569C27.4034 40.9473 27.249 41.1017 27.0586 41.1017Z" stroke="#004F9F" stroke-width="1.5"/>
</svg>
