<svg xmlns="http://www.w3.org/2000/svg" width="24" height="24" viewBox="0 0 24 24" fill="#0057AF">
<path d="M5.50519 8.89389L1.4942 8.89389C0.670249 8.89389 1.19573e-06 9.67039 1.11231e-06 10.6245L1.51223e-07 21.6181C6.78468e-08 22.5718 0.670248 23.3479 1.4942 23.3479L5.50519 23.3479C6.32914 23.3479 6.99939 22.5718 6.99939 21.6181L6.99939 10.6245C6.99939 9.67039 6.32914 8.89389 5.50519 8.89389ZM1.4942 22.088C1.41399 22.088 1.25986 21.9049 1.25986 21.6181L1.25987 10.6245C1.25987 10.3373 1.41357 10.1538 1.4942 10.1538L5.50519 10.1538C5.5854 10.1538 5.73952 10.3377 5.73952 10.6245L5.73952 21.6181C5.73952 21.9054 5.58582 22.088 5.50519 22.088L1.4942 22.088V22.088Z"/>
<path d="M13.3252 0.059303C12.0611 0.0593029 11.0331 1.08693 11.0331 2.351C11.0331 2.43625 11.0381 2.5215 11.0478 2.60759C11.0326 2.68318 11.031 2.76003 11.0473 2.83478C11.4853 4.84259 10.5728 7.12294 9.98989 8.30302C9.9395 8.40465 9.89036 8.50376 9.84333 8.59321C9.75513 8.69525 9.63587 8.76413 9.50148 8.78932L9.32888 8.78932C9.3041 8.78932 9.26505 8.79184 9.23481 8.79562C8.27815 8.8498 7.53903 9.62671 7.53903 10.5796L7.53903 21.5581C7.53903 22.5449 8.34199 23.3479 9.32888 23.3479L21.707 23.3479C21.7616 23.3479 21.8141 23.3412 21.8637 23.3282C23.0232 23.206 23.9135 22.23 23.9135 21.0554C23.9135 20.4238 23.6565 19.8505 23.2386 19.4356C23.7056 19.0156 24 18.4071 24 17.731C24 17.0771 23.7249 16.4867 23.2844 16.0684C23.7249 15.651 24 15.0597 24 14.4058C24 13.7519 23.7249 13.1615 23.2844 12.744C23.7249 12.3258 24 11.7353 24 11.0814C24 9.81738 22.972 8.78891 21.7079 8.78891L16.4135 8.78974C17.8939 4.18662 15.2645 1.09995 15.1448 0.963045C15.1423 0.960525 15.1398 0.958005 15.1381 0.954226C14.7043 0.393166 14.0315 0.059303 13.3252 0.059303ZM12.3185 2.76591C12.3295 2.69872 12.3295 2.63069 12.3156 2.56349C12.3005 2.49294 12.2925 2.42155 12.2925 2.351C12.2925 1.78196 12.7561 1.31917 13.3252 1.31917C13.6565 1.31917 13.9601 1.47581 14.1584 1.74878C14.1781 1.77608 14.2004 1.80211 14.2239 1.82605C14.5157 2.18511 16.6697 5.03703 14.9269 9.17526C14.845 9.3697 14.8656 9.59186 14.9827 9.7674C15.0991 9.94378 15.296 10.0496 15.5077 10.0496L21.707 10.0496C21.9825 10.0496 22.2417 10.1563 22.4369 10.3516C22.6314 10.5468 22.7389 10.8059 22.7389 11.0814C22.7389 11.6505 22.2757 12.1141 21.707 12.1141C21.3593 12.1141 21.0771 12.3963 21.0771 12.744C21.0771 13.0918 21.3593 13.374 21.707 13.374C22.2757 13.374 22.7389 13.8368 22.7389 14.4058C22.7389 14.9748 22.2757 15.4385 21.707 15.4385C21.3593 15.4385 21.0771 15.7207 21.0771 16.0684C21.0771 16.4161 21.3593 16.6983 21.707 16.6983C22.2757 16.6983 22.7389 17.162 22.7389 17.731C22.7389 18.3 22.2757 18.7628 21.707 18.7628C21.3593 18.7628 21.0771 19.045 21.0771 19.3928C21.0771 19.7283 21.3396 20.013 21.6743 20.0311C22.2232 20.0597 22.6532 20.5103 22.6532 21.0554C22.6532 21.6017 22.2232 22.0511 21.6743 22.0796C21.6487 22.0813 21.6247 22.0838 21.6004 22.088L9.32888 22.088C9.03701 22.088 8.7989 21.8503 8.7989 21.5581L8.7989 10.5792C8.7989 10.2949 9.02273 10.0635 9.30872 10.053C9.32132 10.0521 9.34106 10.0504 9.35996 10.0488L9.54852 10.0488C9.57497 10.0488 9.60185 10.0471 9.62789 10.0437C10.1323 9.97906 10.577 9.71995 10.8798 9.31301C10.8987 9.28655 10.9159 9.25967 10.931 9.23112C10.9911 9.11773 11.0545 8.993 11.1191 8.8603C11.8973 7.28631 12.7225 4.96984 12.3185 2.76591Z"/>
</svg>