<svg width="52" height="52" viewBox="0 0 52 52" fill="none" xmlns="http://www.w3.org/2000/svg">
<path d="M40.2391 12.7156C39.0636 9.90895 37.0848 7.51226 34.5514 5.82668C32.018 4.1411 29.043 3.24182 26.0001 3.24182C22.9571 3.24182 19.9821 4.1411 17.4487 5.82668C14.9153 7.51226 12.9365 9.90895 11.761 12.7156C9.2312 13.8872 7.08731 15.7548 5.5801 18.1002C4.07289 20.4455 3.2647 23.1715 3.25006 25.9594C3.22771 33.8447 9.62006 40.4219 17.4972 40.625C19.8802 40.6872 22.2419 40.1634 24.3751 39.0995V47.125C24.3751 47.556 24.5463 47.9693 24.851 48.2741C25.1558 48.5788 25.5691 48.75 26.0001 48.75C26.431 48.75 26.8444 48.5788 27.1491 48.2741C27.4539 47.9693 27.6251 47.556 27.6251 47.125V39.0995C29.6437 40.1063 31.8693 40.6286 34.1251 40.625H34.5029C42.3801 40.4219 48.7724 33.8488 48.7501 25.9635C48.7364 23.1749 47.9287 20.4479 46.4214 18.1017C44.9141 15.7555 42.7697 13.8872 40.2391 12.7156ZM34.4196 37.375C32.0728 37.4405 29.7639 36.7731 27.814 35.4656C27.7503 35.425 27.6873 35.3864 27.6251 35.3499V27.0035L36.4772 22.5794C36.6682 22.4839 36.8385 22.3517 36.9785 22.1904C37.1184 22.0291 37.2251 21.8418 37.2927 21.6392C37.3602 21.4366 37.3871 21.2227 37.372 21.0097C37.3569 20.7968 37.2999 20.5888 37.2044 20.3978C37.1089 20.2068 36.9768 20.0365 36.8154 19.8966C36.6541 19.7567 36.4668 19.6499 36.2643 19.5824C36.0617 19.5149 35.8478 19.4879 35.6348 19.5031C35.4218 19.5182 35.2139 19.5751 35.0229 19.6706L27.6251 23.3716V17.875C27.6251 17.444 27.4539 17.0307 27.1491 16.726C26.8444 16.4212 26.431 16.25 26.0001 16.25C25.5691 16.25 25.1558 16.4212 24.851 16.726C24.5463 17.0307 24.3751 17.444 24.3751 17.875V28.2466L16.9772 24.5456C16.5915 24.3528 16.145 24.321 15.7359 24.4574C15.3267 24.5938 14.9885 24.8871 14.7957 25.2728C14.6028 25.6586 14.5711 26.1051 14.7075 26.5142C14.8438 26.9233 15.1371 27.2615 15.5229 27.4544L24.3751 31.8785V35.3438C24.3114 35.3803 24.2484 35.4189 24.1862 35.4595C22.2364 36.768 19.9278 37.4375 17.5805 37.375C15.0115 37.3108 12.5398 36.3786 10.5683 34.7302C8.59672 33.0818 7.24144 30.8144 6.72324 28.2973C6.20503 25.7802 6.55442 23.1618 7.7145 20.8687C8.87458 18.5756 10.777 16.7428 13.1118 15.6691C13.8502 15.3307 14.434 14.7266 14.7469 13.977C15.6745 11.7603 17.2367 9.86717 19.2371 8.53571C21.2375 7.20426 23.5869 6.49388 25.9899 6.49388C28.3929 6.49388 30.7423 7.20426 32.7427 8.53571C34.7431 9.86717 36.3053 11.7603 37.2329 13.977C37.5458 14.7266 38.1296 15.3307 38.868 15.6691C41.2028 16.7428 43.1052 18.5756 44.2653 20.8687C45.4254 23.1618 45.7748 25.7802 45.2566 28.2973C44.7384 30.8144 43.3831 33.0818 41.4115 34.7302C39.44 36.3786 36.9683 37.3108 34.3993 37.375H34.4196Z" fill="#004F9F"/>
</svg>
