<svg width="52" height="52" viewBox="0 0 52 52" fill="none" xmlns="http://www.w3.org/2000/svg">
<path d="M11.6998 5.20001C10.6655 5.20001 9.67348 5.6109 8.94209 6.3423C8.2107 7.07369 7.7998 8.06567 7.7998 9.10001V42.9C7.7998 43.9344 8.2107 44.9263 8.94209 45.6577C9.67348 46.3891 10.6655 46.8 11.6998 46.8H29.8998C30.9342 46.8 31.9261 46.3891 32.6575 45.6577C33.3889 44.9263 33.7998 43.9344 33.7998 42.9V39C33.7998 38.6552 33.6628 38.3246 33.419 38.0808C33.1752 37.837 32.8446 37.7 32.4998 37.7C31.426 37.7 30.7396 37.4348 30.2742 37.0864C29.7984 36.7302 29.437 36.1972 29.1718 35.4666C28.6154 33.9378 28.5998 31.9124 28.5998 29.9C28.5998 29.729 28.566 29.5597 28.5004 29.4017C28.4348 29.2438 28.3387 29.1003 28.2176 28.9796L27.474 28.2334L24.3202 25.0796C23.106 23.8654 22.7498 23.0516 22.6822 22.5966C22.6302 22.2326 22.7394 21.9882 22.9994 21.7386C23.5558 21.2056 23.9536 20.8442 24.4034 20.735C24.6712 20.6674 25.2822 20.6206 26.3794 21.7178L34.1794 29.5178C34.4232 29.7619 34.7539 29.8992 35.0989 29.8994C35.2697 29.8996 35.4389 29.866 35.5967 29.8008C35.7546 29.7355 35.898 29.6398 36.0189 29.5191C36.1398 29.3984 36.2357 29.2551 36.3012 29.0973C36.3666 28.9396 36.4004 28.7704 36.4005 28.5996C36.4007 28.4288 36.3671 28.2597 36.3019 28.1018C36.2366 27.9439 36.1409 27.8005 36.0202 27.6796L33.7998 25.4618V17.4382L40.4558 24.0942C40.8184 24.4563 41.106 24.8863 41.3023 25.3597C41.4986 25.833 41.5997 26.3404 41.5998 26.8528V45.5C41.5998 45.8448 41.7368 46.1755 41.9806 46.4193C42.2244 46.663 42.555 46.8 42.8998 46.8C43.2446 46.8 43.5752 46.663 43.819 46.4193C44.0628 46.1755 44.1998 45.8448 44.1998 45.5V26.8528C44.1994 25.1297 43.5149 23.4772 42.2966 22.2586L33.7998 13.7618V9.10001C33.7998 8.06567 33.3889 7.07369 32.6575 6.3423C31.9261 5.6109 30.9342 5.20001 29.8998 5.20001H11.6998ZM31.1998 14.3V22.8618L28.2202 19.8796C26.7174 18.3768 25.2198 17.8594 23.7872 18.2078C23.5058 18.2773 23.2329 18.3775 22.9734 18.5068C21.8112 18.1701 20.5866 18.1084 19.3964 18.3264C18.2062 18.5445 17.083 19.0363 16.1156 19.7631C15.1482 20.4899 14.3631 21.4318 13.8224 22.5142C13.2816 23.5966 13 24.79 12.9998 26C12.9997 27.5079 13.4366 28.9834 14.2578 30.2481C15.0789 31.5128 16.249 32.5124 17.6264 33.1258C19.0038 33.7393 20.5295 33.9404 22.0188 33.7047C23.5082 33.4691 24.8973 32.8068 26.018 31.798C26.0622 33.3008 26.213 34.944 26.7278 36.3558C27.1126 37.414 27.7262 38.4254 28.7142 39.1638L28.7298 39.1794C27.9381 39.4284 27.2464 39.9235 26.7555 40.5926C26.2645 41.2617 25.9998 42.0701 25.9998 42.9V44.2H15.5998V42.9C15.5998 41.8657 15.1889 40.8737 14.4575 40.1423C13.7261 39.4109 12.7341 39 11.6998 39H10.3998V13H11.6998C12.7341 13 13.7261 12.5891 14.4575 11.8577C15.1889 11.1263 15.5998 10.1344 15.5998 9.10001V7.80001H25.9998V9.10001C25.9998 10.1344 26.4107 11.1263 27.1421 11.8577C27.8735 12.5891 28.8655 13 29.8998 13H31.1998V14.3ZM31.1998 42.9V42.9234C31.1937 43.2641 31.054 43.5888 30.8109 43.8276C30.5677 44.0663 30.2406 44.2001 29.8998 44.2H28.5998V42.9C28.5998 42.5552 28.7368 42.2246 28.9806 41.9808C29.2244 41.737 29.555 41.6 29.8998 41.6H31.1998V42.9ZM15.5998 26C15.5998 24.6776 16.1037 23.4049 17.0088 22.4408C17.914 21.4767 19.1524 20.8937 20.4722 20.8104C20.1498 21.4084 19.986 22.1364 20.1108 22.9762C20.2954 24.2294 21.0936 25.532 22.4794 26.9178L24.8376 29.276C24.1606 30.1103 23.2418 30.7143 22.2076 31.0052C21.1733 31.2961 20.0744 31.2594 19.0618 30.9003C18.0492 30.5413 17.1727 29.8773 16.5528 28.9998C15.9328 28.1224 15.5999 27.0744 15.5998 26ZM12.9998 7.80001V9.10001C12.9998 9.44479 12.8628 9.77545 12.619 10.0193C12.3752 10.263 12.0446 10.4 11.6998 10.4H10.3998V9.10001C10.3998 8.75523 10.5368 8.42457 10.7806 8.18077C11.0244 7.93698 11.355 7.80001 11.6998 7.80001H12.9998ZM10.3998 41.6H11.6998C12.0446 41.6 12.3752 41.737 12.619 41.9808C12.8628 42.2246 12.9998 42.5552 12.9998 42.9V44.2H11.6998C11.355 44.2 11.0244 44.063 10.7806 43.8193C10.5368 43.5755 10.3998 43.2448 10.3998 42.9V41.6ZM31.1998 10.4H29.8998C29.555 10.4 29.2244 10.263 28.9806 10.0193C28.7368 9.77545 28.5998 9.44479 28.5998 9.10001V7.80001H29.8998C30.2446 7.80001 30.5752 7.93698 30.819 8.18077C31.0628 8.42457 31.1998 8.75523 31.1998 9.10001V10.4Z" fill="#004F9F"/>
</svg>
