<svg width="52" height="52" viewBox="0 0 52 52" fill="none" xmlns="http://www.w3.org/2000/svg">
<path d="M40.625 32.5C40.625 41.4751 34.9751 47.125 26 47.125C17.0249 47.125 11.375 41.4751 11.375 32.5C11.375 22.8688 21.8593 9.86679 25.0748 6.10593C25.1892 5.97231 25.3312 5.86504 25.491 5.7915C25.6508 5.71795 25.8246 5.67987 26.0005 5.67987C26.1764 5.67987 26.3502 5.71795 26.5101 5.7915C26.6699 5.86504 26.8118 5.97231 26.9262 6.10593C30.1407 9.86679 40.625 22.8688 40.625 32.5Z" stroke="#004F9F" stroke-width="3" stroke-miterlimit="10"/>
<path d="M34.9375 33.3125C34.9375 35.2519 34.1671 37.1119 32.7957 38.4832C31.4244 39.8546 29.5644 40.625 27.625 40.625" stroke="#004F9F" stroke-width="1.5" stroke-linecap="round" stroke-linejoin="round"/>
</svg>
