<svg width="52" height="52" viewBox="0 0 52 52" fill="none" xmlns="http://www.w3.org/2000/svg">
<path d="M39 43.3333L47.2853 35.048C47.5292 34.8044 47.6664 34.474 47.6667 34.1293V22.75C47.6667 21.888 47.3243 21.0614 46.7148 20.4519C46.1053 19.8424 45.2786 19.5 44.4167 19.5C43.5547 19.5 42.7281 19.8424 42.1186 20.4519C41.5091 21.0614 41.1667 21.888 41.1667 22.75V32.5" stroke="#004F9F" stroke-width="3" stroke-linecap="round" stroke-linejoin="round"/>
<path d="M38.9999 34.6667L40.8589 32.8077C40.9566 32.7101 41.034 32.5943 41.0868 32.4668C41.1396 32.3392 41.1667 32.2025 41.1666 32.0645C41.1663 31.8697 41.1118 31.6787 41.0093 31.5131C40.9067 31.3474 40.7602 31.2135 40.5859 31.1263L39.6261 30.6475C38.8129 30.2409 37.8925 30.1004 36.995 30.2458C36.0976 30.3912 35.2686 30.8153 34.6254 31.4578L32.6863 33.397C31.8735 34.2095 31.4168 35.3115 31.4166 36.4607V43.3333M12.9999 43.3333L4.71459 35.048C4.47072 34.8044 4.33356 34.474 4.33325 34.1293V22.75C4.33325 21.888 4.67566 21.0614 5.28515 20.4519C5.89465 19.8424 6.7213 19.5 7.58325 19.5C8.44521 19.5 9.27186 19.8424 9.88135 20.4519C10.4908 21.0614 10.8333 21.888 10.8333 22.75V32.5" stroke="#004F9F" stroke-width="3" stroke-linecap="round" stroke-linejoin="round"/>
<path d="M12.9999 34.6667L11.1409 32.8077C11.0433 32.7101 10.966 32.5942 10.9132 32.4667C10.8604 32.3392 10.8332 32.2025 10.8333 32.0645C10.8333 31.668 11.0586 31.3062 11.4139 31.1264L12.3738 30.6475C13.1869 30.2409 14.1074 30.1004 15.0048 30.2458C15.9023 30.3913 16.7313 30.8153 17.3744 31.4579L19.3136 33.397C20.1263 34.2095 20.583 35.3115 20.5833 36.4607V43.3334M29.6118 26H22.3881V20.9452H17.3333V13.7215H22.3881V8.66669H29.6118V13.7215H34.6666V20.9452H29.6118V26Z" stroke="#004F9F" stroke-width="3" stroke-linecap="round" stroke-linejoin="round"/>
</svg>
