<svg width="52" height="52" viewBox="0 0 52 52" fill="none" xmlns="http://www.w3.org/2000/svg">
<path d="M26 48.75L15.964 43.3989C13.1029 41.8768 10.7103 39.6043 9.04301 36.8253C7.37568 34.0463 6.49657 30.8658 6.50001 27.625V6.5C6.50087 5.63831 6.84356 4.81216 7.45286 4.20285C8.06217 3.59355 8.88832 3.25086 9.75001 3.25H42.25C43.1117 3.25086 43.9379 3.59355 44.5472 4.20285C45.1565 4.81216 45.4991 5.63831 45.5 6.5V27.625C45.5035 30.8658 44.6243 34.0463 42.957 36.8253C41.2897 39.6043 38.8971 41.8768 36.036 43.3989L26 48.75ZM9.75001 6.5V27.625C9.74731 30.2767 10.4668 32.879 11.8313 35.1527C13.1957 37.4264 15.1536 39.2856 17.4948 40.5307L26 45.0661L34.5053 40.5324C36.8467 39.2871 38.8047 37.4277 40.1692 35.1537C41.5337 32.8797 42.253 30.277 42.25 27.625V6.5H9.75001Z" fill="#004F9F"/>
<path fill-rule="evenodd" clip-rule="evenodd" d="M26.7013 15.6809C27.0684 15.8115 27.3915 16.0338 27.6429 16.3218L33.6046 14.8311C33.7101 14.8043 33.8201 14.8009 33.9271 14.821C34.034 14.8411 34.1353 14.8842 34.2239 14.9475C34.3074 15.0071 34.3783 15.0833 34.4313 15.1728L37.9337 20.777H39.3857V20.7793C39.3857 21.2941 39.3245 21.7933 39.2096 22.2693C38.588 24.8435 36.3966 26.7461 33.7896 26.7461C31.1819 26.7461 28.9912 24.8435 28.3697 22.2693C28.2522 21.7806 28.1931 21.2797 28.1936 20.777H29.2934L32.0578 16.7561L28.1929 17.7223L28.1936 17.7925C28.1937 18.2555 28.0503 18.7073 27.783 19.0854C27.5158 19.4636 27.1379 19.7496 26.7013 19.904V36.4459H28.9397V37.9382H33.4166V39.4304H18.4938V37.9382H22.9706V36.4459H25.2091V19.904C24.7211 19.7307 24.3081 19.3941 24.0399 18.9512L19.6779 20.1145L23.1087 25.4165H23.8063V25.4187C23.8067 25.9206 23.7476 26.4208 23.6302 26.9088C23.0087 29.4829 20.8173 31.3856 18.2103 31.3856C15.6025 31.3856 13.4119 29.4829 12.7903 26.9088C12.6729 26.4201 12.6138 25.9191 12.6143 25.4165H13.5156L17.8842 19.2273C17.9851 19.0843 18.133 18.9813 18.3021 18.9363L23.7377 17.4873C23.7939 17.0804 23.9609 16.6968 24.2204 16.3783C24.4799 16.0599 24.8219 15.8189 25.2091 15.6817V12.5695H26.7013V15.6809ZM36.1743 20.777L33.7598 16.9143L31.1043 20.777H36.1743ZM21.3314 25.4165L18.467 20.9897L15.3421 25.4165H21.3314ZM37.6621 22.2693C37.0875 24.0488 35.5177 25.2538 33.7896 25.2538C32.0616 25.2538 30.4917 24.0488 29.9172 22.2693H37.6621ZM22.0827 26.9088C21.5082 28.6883 19.9383 29.8933 18.2103 29.8933C16.4822 29.8933 14.9124 28.6883 14.3378 26.9088H22.0827ZM25.9552 18.5386C26.1531 18.5386 26.3429 18.46 26.4828 18.3201C26.6227 18.1801 26.7013 17.9904 26.7013 17.7925C26.7013 17.5946 26.6227 17.4048 26.4828 17.2649C26.3429 17.125 26.1531 17.0463 25.9552 17.0463C25.7573 17.0463 25.5675 17.125 25.4276 17.2649C25.2877 17.4048 25.2091 17.5946 25.2091 17.7925C25.2091 17.9904 25.2877 18.1801 25.4276 18.3201C25.5675 18.46 25.7573 18.5386 25.9552 18.5386Z" fill="#004F9F"/>
</svg>
