<svg width="52" height="52" viewBox="0 0 52 52" fill="none" xmlns="http://www.w3.org/2000/svg">
<path d="M36.8335 32.5C35.3168 32.5 34.0349 31.9764 32.9877 30.9292C31.9404 29.882 31.4168 28.6 31.4168 27.0834C31.4168 25.5667 31.9404 24.2847 32.9877 23.2375C34.0349 22.1903 35.3168 21.6667 36.8335 21.6667C38.3502 21.6667 39.6321 22.1903 40.6793 23.2375C41.7266 24.2847 42.2502 25.5667 42.2502 27.0834C42.2502 28.6 41.7266 29.882 40.6793 30.9292C39.6321 31.9764 38.3502 32.5 36.8335 32.5ZM26.0002 41.1667V40.3C26.0002 39.4334 26.2262 38.6302 26.6783 37.8907C27.1304 37.1511 27.7711 36.6181 28.6002 36.2917C29.9002 35.75 31.2457 35.3441 32.6367 35.074C34.0277 34.8039 35.4266 34.6681 36.8335 34.6667C38.2418 34.6667 39.6415 34.8025 41.0325 35.074C42.4235 35.3456 43.7683 35.7515 45.0668 36.2917C45.8974 36.6167 46.5387 37.1497 46.9908 37.8907C47.4429 38.6317 47.6683 39.4348 47.6668 40.3V41.1667C47.6668 41.7806 47.4588 42.2955 47.0428 42.7115C46.6268 43.1275 46.1126 43.3348 45.5002 43.3334H28.1668C27.5529 43.3334 27.0387 43.1254 26.6242 42.7094C26.2096 42.2934 26.0016 41.7791 26.0002 41.1667ZM21.6668 26C19.2835 26 17.2432 25.1514 15.546 23.4542C13.8488 21.757 13.0002 19.7167 13.0002 17.3334C13.0002 14.95 13.8488 12.9097 15.546 11.2125C17.2432 9.5153 19.2835 8.66669 21.6668 8.66669C24.0502 8.66669 26.0904 9.5153 27.7877 11.2125C29.4849 12.9097 30.3335 14.95 30.3335 17.3334C30.3335 19.7167 29.4849 21.757 27.7877 23.4542C26.0904 25.1514 24.0502 26 21.6668 26ZM4.3335 37.2667C4.3335 36.0389 4.64044 34.9108 5.25433 33.8824C5.86822 32.8539 6.71683 32.0681 7.80016 31.525C9.96683 30.4417 12.2151 29.6111 14.545 29.0334C16.8749 28.4556 19.2488 28.1667 21.6668 28.1667C22.9307 28.1667 24.1946 28.275 25.4585 28.4917C26.7224 28.7084 27.9863 28.9611 29.2502 29.25L27.4085 31.0917L25.5668 32.9334C24.9168 32.7528 24.2668 32.6358 23.6168 32.5824C22.9668 32.5289 22.3168 32.5015 21.6668 32.5C19.5724 32.5 17.5227 32.7528 15.5178 33.2584C13.5129 33.7639 11.5904 34.4861 9.75016 35.425C9.38905 35.6056 9.11822 35.8584 8.93766 36.1834C8.75711 36.5084 8.66683 36.8695 8.66683 37.2667V39H21.6668V41.1125C21.6668 41.582 21.7571 42.0066 21.9377 42.3865C22.1182 42.7664 22.371 43.082 22.696 43.3334H8.66683C7.47516 43.3334 6.45539 42.9094 5.6075 42.0615C4.75961 41.2136 4.33494 40.1931 4.3335 39V37.2667ZM21.6668 21.6667C22.8585 21.6667 23.879 21.2427 24.7283 20.3949C25.5777 19.547 26.0016 18.5265 26.0002 17.3334C26.0002 16.1417 25.5762 15.1219 24.7283 14.274C23.8804 13.4261 22.8599 13.0015 21.6668 13C20.4752 13 19.4554 13.4247 18.6075 14.274C17.7596 15.1234 17.3349 16.1431 17.3335 17.3334C17.3335 18.525 17.7582 19.5455 18.6075 20.3949C19.4568 21.2442 20.4766 21.6681 21.6668 21.6667Z" fill="#004F9F"/>
</svg>
