<svg width="52" height="52" viewBox="0 0 52 52" fill="none" xmlns="http://www.w3.org/2000/svg">
<path d="M35.7607 21.3228C35.3353 21.7455 34.7599 21.9827 34.1602 21.9827C33.5605 21.9827 32.9852 21.7455 32.5597 21.3228L30.6802 19.4432C30.2571 19.0179 30.0196 18.4423 30.0196 17.8424C30.0196 17.2424 30.2571 16.6669 30.6802 16.2415L34.9345 11.9851C34.9429 11.977 34.9492 11.967 34.9528 11.9558C34.9563 11.9447 34.9571 11.9329 34.955 11.9214C34.9529 11.9099 34.948 11.8991 34.9407 11.89C34.9334 11.8809 34.924 11.8737 34.9133 11.8691C32.1671 10.692 28.6068 11.2919 26.3459 13.5364C24.1827 15.6834 24.0596 18.9127 24.8519 21.731C24.9645 22.1315 24.9642 22.5554 24.8511 22.9559C24.738 23.3563 24.5165 23.7178 24.211 24.0003L12.4257 34.7634C12.078 35.0717 11.797 35.4478 11.6001 35.8687C11.4031 36.2896 11.2943 36.7463 11.2803 37.2108C11.2664 37.6753 11.3476 38.1377 11.519 38.5697C11.6904 39.0016 11.9483 39.394 12.2769 39.7226C12.6054 40.0512 12.9978 40.3091 13.4297 40.4804C13.8617 40.6518 14.3241 40.733 14.7886 40.7191C15.2531 40.7051 15.7098 40.5963 16.1307 40.3994C16.5516 40.2024 16.9278 39.9214 17.236 39.5737L28.1201 27.7601C28.399 27.4598 28.7544 27.241 29.1482 27.1272C29.542 27.0134 29.9593 27.009 30.3555 27.1143C33.1525 27.8634 36.3358 27.7226 38.4708 25.6153C40.7691 23.3516 41.265 19.3506 40.1508 17.0607C40.1458 17.0507 40.1385 17.042 40.1295 17.0354C40.1205 17.0288 40.11 17.0244 40.0989 17.0226C40.0879 17.0208 40.0766 17.0216 40.0659 17.0251C40.0553 17.0285 40.0456 17.0344 40.0377 17.0423L35.7607 21.3228Z" stroke="#004F9F" stroke-width="3" stroke-miterlimit="10" stroke-linecap="round"/>
<path d="M14.6895 38.4418C15.3146 38.4418 15.8213 37.9351 15.8213 37.31C15.8213 36.6849 15.3146 36.1782 14.6895 36.1782C14.0644 36.1782 13.5576 36.6849 13.5576 37.31C13.5576 37.9351 14.0644 38.4418 14.6895 38.4418Z" fill="#004F9F"/>
<circle cx="26" cy="26" r="22.75" stroke="#004F9F" stroke-width="3"/>
</svg>
