<svg width="52" height="52" viewBox="0 0 52 52" fill="none" xmlns="http://www.w3.org/2000/svg">
<g clip-path="url(#clip0_129_425)">
<path d="M34.1552 8.66669C35.3622 8.66673 36.5453 9.00281 37.572 9.63729C38.5987 10.2718 39.4285 11.1796 39.9684 12.259L42.9649 18.2499C43.4936 18.0332 44.0201 17.8144 44.5314 17.5609C45.0457 17.304 45.641 17.262 46.1863 17.444C46.7316 17.626 47.1822 18.0172 47.4391 18.5315C47.6959 19.0458 47.738 19.6411 47.5559 20.1864C47.3739 20.7317 46.9827 21.1823 46.4684 21.4392C45.3981 21.9722 44.9084 22.1369 44.9084 22.1369L46.9797 26.2817C47.4326 27.1852 47.6666 28.1797 47.6666 29.1894V34.6667C47.6679 35.5814 47.4756 36.486 47.1021 37.3211C46.7287 38.1561 46.1826 38.9026 45.4999 39.5114V42.25C45.4999 43.112 45.1575 43.9386 44.548 44.5481C43.9385 45.1576 43.1119 45.5 42.2499 45.5C41.388 45.5 40.5613 45.1576 39.9518 44.5481C39.3423 43.9386 38.9999 43.112 38.9999 42.25V41.1667H12.9999V42.25C12.9999 43.112 12.6575 43.9386 12.048 44.5481C11.4385 45.1576 10.6119 45.5 9.74991 45.5C8.88796 45.5 8.06131 45.1576 7.45182 44.5481C6.84232 43.9386 6.49991 43.112 6.49991 42.25V39.5114C5.16958 38.3197 4.33325 36.5907 4.33325 34.6667V29.1894C4.33365 28.1807 4.5688 27.1859 5.02008 26.2839L7.09141 22.1369C6.56663 21.9192 6.04788 21.6873 5.53575 21.4414C5.28036 21.3146 5.05249 21.1388 4.8652 20.9238C4.6779 20.7089 4.53487 20.4591 4.44429 20.1888C4.35371 19.9185 4.31738 19.6329 4.33736 19.3486C4.35734 19.0642 4.43326 18.7865 4.56075 18.5315C4.82328 18.0199 5.27648 17.632 5.82251 17.4516C6.36853 17.2712 6.9636 17.3128 7.47925 17.5674C7.98841 17.8144 8.51058 18.0375 9.03491 18.2499L12.0314 12.259C12.5713 11.1796 13.4011 10.2718 14.4278 9.63729C15.4545 9.00281 16.6376 8.66673 17.8446 8.66669H34.1552ZM40.8069 23.6254C37.1236 24.7889 31.8824 26 25.9999 26C20.1174 26 14.8762 24.7867 11.1929 23.6254L8.89625 28.2187C8.74524 28.52 8.6666 28.8523 8.66658 29.1894V34.6667C8.66658 35.2413 8.89485 35.7924 9.30118 36.1988C9.70751 36.6051 10.2586 36.8334 10.8332 36.8334H41.1666C41.7412 36.8334 42.2923 36.6051 42.6986 36.1988C43.105 35.7924 43.3332 35.2413 43.3332 34.6667V29.1894C43.3329 28.8531 43.2543 28.5215 43.1036 28.2209L40.8069 23.6254ZM16.2499 28.1667C17.1119 28.1667 17.9385 28.5091 18.548 29.1186C19.1575 29.7281 19.4999 30.5547 19.4999 31.4167C19.4999 32.2786 19.1575 33.1053 18.548 33.7148C17.9385 34.3243 17.1119 34.6667 16.2499 34.6667C15.388 34.6667 14.5613 34.3243 13.9518 33.7148C13.3423 33.1053 12.9999 32.2786 12.9999 31.4167C12.9999 30.5547 13.3423 29.7281 13.9518 29.1186C14.5613 28.5091 15.388 28.1667 16.2499 28.1667ZM35.7499 28.1667C36.6119 28.1667 37.4385 28.5091 38.048 29.1186C38.6575 29.7281 38.9999 30.5547 38.9999 31.4167C38.9999 32.2786 38.6575 33.1053 38.048 33.7148C37.4385 34.3243 36.6119 34.6667 35.7499 34.6667C34.888 34.6667 34.0613 34.3243 33.4518 33.7148C32.8423 33.1053 32.4999 32.2786 32.4999 31.4167C32.4999 30.5547 32.8423 29.7281 33.4518 29.1186C34.0613 28.5091 34.888 28.1667 35.7499 28.1667ZM34.1552 13H17.8446C17.4423 13.0002 17.048 13.1124 16.7059 13.324C16.3638 13.5357 16.0874 13.8383 15.9076 14.1982L13.1559 19.695C16.5099 20.7025 21.0296 21.6667 25.9999 21.6667C30.9702 21.6667 35.4899 20.7025 38.8418 19.695L36.0923 14.1982C35.9124 13.8383 35.636 13.5357 35.2939 13.324C34.9518 13.1124 34.5575 13.0002 34.1552 13Z" fill="#004F9F"/>
</g>
<defs>
<clipPath id="clip0_129_425">
<rect width="52" height="52" fill="white"/>
</clipPath>
</defs>
</svg>
