<svg width="52" height="52" viewBox="0 0 52 52" fill="none" xmlns="http://www.w3.org/2000/svg">
<path d="M8.6665 21.6666C8.6665 13.4961 8.6665 9.40981 11.2058 6.87265C13.743 4.33331 17.8293 4.33331 25.9998 4.33331C34.1703 4.33331 38.2567 4.33331 40.7938 6.87265C43.3332 9.40981 43.3332 13.4961 43.3332 21.6666V26C43.3332 34.1705 43.3332 38.2568 40.7938 40.794C38.2567 43.3333 34.1703 43.3333 25.9998 43.3333C17.8293 43.3333 13.743 43.3333 11.2058 40.794C8.6665 38.2568 8.6665 34.1705 8.6665 26V21.6666Z" stroke="#004F9F" stroke-width="2"/>
<path d="M33.5833 34.6667H36.8333M15.1666 34.6667H18.4166M12.9999 42.25V45.5C12.9999 46.0746 13.2282 46.6257 13.6345 47.0321C14.0409 47.4384 14.5919 47.6667 15.1666 47.6667H18.4166C18.9912 47.6667 19.5423 47.4384 19.9487 47.0321C20.355 46.6257 20.5833 46.0746 20.5833 45.5V43.3333M38.9999 42.25V45.5C38.9999 46.0746 38.7716 46.6257 38.3653 47.0321C37.959 47.4384 37.4079 47.6667 36.8333 47.6667H33.5833C33.0086 47.6667 32.4575 47.4384 32.0512 47.0321C31.6449 46.6257 31.4166 46.0746 31.4166 45.5V43.3333M43.3333 19.5H45.4999C46.0746 19.5 46.6257 19.7283 47.032 20.1346C47.4383 20.5409 47.6666 21.092 47.6666 21.6667V23.8333C47.6666 24.1697 47.5883 24.5014 47.4378 24.8023C47.2874 25.1031 47.069 25.3648 46.7999 25.5667L43.3333 28.1667H8.66659L5.19992 25.5667C4.93083 25.3648 4.71242 25.1031 4.56199 24.8023C4.41157 24.5014 4.33325 24.1697 4.33325 23.8333V21.6667C4.33325 21.092 4.56153 20.5409 4.96785 20.1346C5.37418 19.7283 5.92528 19.5 6.49992 19.5H8.66659" stroke="#004F9F" stroke-width="2" stroke-linecap="round" stroke-linejoin="round"/>
<path d="M42.25 10.8333H9.75" stroke="#004F9F" stroke-width="1.5" stroke-linecap="round"/>
</svg>
